<svg width="388" height="83" viewBox="0 0 388 83" fill="none" xmlns="http://www.w3.org/2000/svg">
<path d="M37.9648 4.9502C39.9175 2.99757 43.0825 2.99757 45.0352 4.9502L78.0498 37.9648C80.0024 39.9175 80.0024 43.0825 78.0498 45.0352L45.0352 78.0498C43.0825 80.0024 39.9175 80.0024 37.9648 78.0498L4.9502 45.0352C2.99757 43.0825 2.99757 39.9175 4.9502 37.9648L37.9648 4.9502Z" stroke="#26C1F2" stroke-width="2"/>
<path d="M32.112 52.224C30.4693 52.224 28.9973 51.9573 27.696 51.424C26.3947 50.8907 25.3493 50.1013 24.56 49.056C23.792 48.0107 23.3867 46.752 23.344 45.28H29.168C29.2533 46.112 29.5413 46.752 30.032 47.2C30.5227 47.6267 31.1627 47.84 31.952 47.84C32.7627 47.84 33.4027 47.6587 33.872 47.296C34.3413 46.912 34.576 46.3893 34.576 45.728C34.576 45.1733 34.384 44.7147 34 44.352C33.6373 43.9893 33.1787 43.6907 32.624 43.456C32.0907 43.2213 31.3227 42.9547 30.32 42.656C28.8693 42.208 27.6853 41.76 26.768 41.312C25.8507 40.864 25.0613 40.2027 24.4 39.328C23.7387 38.4533 23.408 37.312 23.408 35.904C23.408 33.8133 24.1653 32.1813 25.68 31.008C27.1947 29.8133 29.168 29.216 31.6 29.216C34.0747 29.216 36.0693 29.8133 37.584 31.008C39.0987 32.1813 39.9093 33.824 40.016 35.936H34.096C34.0533 35.2107 33.7867 34.6453 33.296 34.24C32.8053 33.8133 32.176 33.6 31.408 33.6C30.7467 33.6 30.2133 33.7813 29.808 34.144C29.4027 34.4853 29.2 34.9867 29.2 35.648C29.2 36.3733 29.5413 36.9387 30.224 37.344C30.9067 37.7493 31.9733 38.1867 33.424 38.656C34.8747 39.1467 36.048 39.616 36.944 40.064C37.8613 40.512 38.6507 41.1627 39.312 42.016C39.9733 42.8693 40.304 43.968 40.304 45.312C40.304 46.592 39.9733 47.7547 39.312 48.8C38.672 49.8453 37.7333 50.6773 36.496 51.296C35.2587 51.9147 33.7973 52.224 32.112 52.224ZM55.8635 52L50.4235 44.512V52H44.9515V28.32H50.4235V41.408L55.8315 34.144H62.5835L55.1595 43.104L62.6475 52H55.8635ZM68.7648 32.288C67.8048 32.288 67.0154 32.0107 66.3968 31.456C65.7994 30.88 65.5008 30.176 65.5008 29.344C65.5008 28.4907 65.7994 27.7867 66.3968 27.232C67.0154 26.656 67.8048 26.368 68.7648 26.368C69.7034 26.368 70.4714 26.656 71.0688 27.232C71.6874 27.7867 71.9968 28.4907 71.9968 29.344C71.9968 30.176 71.6874 30.88 71.0688 31.456C70.4714 32.0107 69.7034 32.288 68.7648 32.288ZM71.4848 34.144V52H66.0128V34.144H71.4848ZM82.2023 28.32V52H76.7303V28.32H82.2023ZM92.9197 28.32V52H87.4477V28.32H92.9197ZM100.917 32.288C99.9573 32.288 99.1679 32.0107 98.5493 31.456C97.9519 30.88 97.6533 30.176 97.6533 29.344C97.6533 28.4907 97.9519 27.7867 98.5493 27.232C99.1679 26.656 99.9573 26.368 100.917 26.368C101.856 26.368 102.624 26.656 103.221 27.232C103.84 27.7867 104.149 28.4907 104.149 29.344C104.149 30.176 103.84 30.88 103.221 31.456C102.624 32.0107 101.856 32.288 100.917 32.288ZM103.637 34.144V52H98.1653V34.144H103.637ZM119.763 33.952C121.853 33.952 123.517 34.6347 124.755 36C126.013 37.344 126.643 39.2 126.643 41.568V52H121.203V42.304C121.203 41.1093 120.893 40.1813 120.275 39.52C119.656 38.8587 118.824 38.528 117.779 38.528C116.733 38.528 115.901 38.8587 115.283 39.52C114.664 40.1813 114.355 41.1093 114.355 42.304V52H108.883V34.144H114.355V36.512C114.909 35.7227 115.656 35.104 116.595 34.656C117.533 34.1867 118.589 33.952 119.763 33.952ZM148.557 42.784C148.557 43.296 148.525 43.8293 148.461 44.384H136.077C136.163 45.4933 136.515 46.3467 137.133 46.944C137.773 47.52 138.552 47.808 139.469 47.808C140.835 47.808 141.784 47.232 142.317 46.08H148.141C147.843 47.2533 147.299 48.3093 146.509 49.248C145.741 50.1867 144.771 50.9227 143.597 51.456C142.424 51.9893 141.112 52.256 139.661 52.256C137.912 52.256 136.355 51.8827 134.989 51.136C133.624 50.3893 132.557 49.3227 131.789 47.936C131.021 46.5493 130.637 44.928 130.637 43.072C130.637 41.216 131.011 39.5947 131.757 38.208C132.525 36.8213 133.592 35.7547 134.957 35.008C136.323 34.2613 137.891 33.888 139.661 33.888C141.389 33.888 142.925 34.2507 144.269 34.976C145.613 35.7013 146.659 36.736 147.405 38.08C148.173 39.424 148.557 40.992 148.557 42.784ZM142.957 41.344C142.957 40.4053 142.637 39.6587 141.997 39.104C141.357 38.5493 140.557 38.272 139.597 38.272C138.68 38.272 137.901 38.5387 137.261 39.072C136.643 39.6053 136.259 40.3627 136.109 41.344H142.957Z" fill="white"/>
<line x1="191.5" y1="-2.18557e-08" x2="191.5" y2="83" stroke="#626381"/>
<path d="M247.312 17.644L241.68 33H237.94L232.308 17.644H235.608L239.832 29.854L244.034 17.644H247.312ZM251.601 19.36C251.058 19.36 250.603 19.1913 250.237 18.854C249.885 18.502 249.709 18.0693 249.709 17.556C249.709 17.0427 249.885 16.6173 250.237 16.28C250.603 15.928 251.058 15.752 251.601 15.752C252.143 15.752 252.591 15.928 252.943 16.28C253.309 16.6173 253.493 17.0427 253.493 17.556C253.493 18.0693 253.309 18.502 252.943 18.854C252.591 19.1913 252.143 19.36 251.601 19.36ZM253.119 20.812V33H250.039V20.812H253.119ZM260.122 22.704C260.518 22.0587 261.031 21.5527 261.662 21.186C262.307 20.8193 263.04 20.636 263.862 20.636V23.87H263.048C262.08 23.87 261.346 24.0973 260.848 24.552C260.364 25.0067 260.122 25.7987 260.122 26.928V33H257.042V20.812H260.122V22.704ZM270.402 23.342V29.238C270.402 29.6487 270.498 29.9493 270.688 30.14C270.894 30.316 271.231 30.404 271.7 30.404H273.13V33H271.194C268.598 33 267.3 31.7387 267.3 29.216V23.342H265.848V20.812H267.3V17.798H270.402V20.812H273.13V23.342H270.402ZM287.732 20.812V33H284.63V31.46C284.234 31.988 283.713 32.406 283.068 32.714C282.437 33.0073 281.748 33.154 281 33.154C280.046 33.154 279.203 32.956 278.47 32.56C277.736 32.1493 277.157 31.5553 276.732 30.778C276.321 29.986 276.116 29.0473 276.116 27.962V20.812H279.196V27.522C279.196 28.49 279.438 29.238 279.922 29.766C280.406 30.2793 281.066 30.536 281.902 30.536C282.752 30.536 283.42 30.2793 283.904 29.766C284.388 29.238 284.63 28.49 284.63 27.522V20.812H287.732ZM290.858 26.862C290.858 25.63 291.1 24.5373 291.584 23.584C292.083 22.6307 292.75 21.8973 293.586 21.384C294.437 20.8707 295.383 20.614 296.424 20.614C297.334 20.614 298.126 20.7973 298.8 21.164C299.49 21.5307 300.04 21.9927 300.45 22.55V20.812H303.552V33H300.45V31.218C300.054 31.79 299.504 32.2667 298.8 32.648C298.111 33.0147 297.312 33.198 296.402 33.198C295.376 33.198 294.437 32.934 293.586 32.406C292.75 31.878 292.083 31.1373 291.584 30.184C291.1 29.216 290.858 28.1087 290.858 26.862ZM300.45 26.906C300.45 26.158 300.304 25.52 300.01 24.992C299.717 24.4493 299.321 24.0387 298.822 23.76C298.324 23.4667 297.788 23.32 297.216 23.32C296.644 23.32 296.116 23.4593 295.632 23.738C295.148 24.0167 294.752 24.4273 294.444 24.97C294.151 25.498 294.004 26.1287 294.004 26.862C294.004 27.5953 294.151 28.2407 294.444 28.798C294.752 29.3407 295.148 29.7587 295.632 30.052C296.131 30.3453 296.659 30.492 297.216 30.492C297.788 30.492 298.324 30.3527 298.822 30.074C299.321 29.7807 299.717 29.37 300.01 28.842C300.304 28.2993 300.45 27.654 300.45 26.906ZM310.521 16.72V33H307.441V16.72H310.521ZM319.818 25.3C319.818 23.7893 320.155 22.44 320.83 21.252C321.519 20.0493 322.45 19.118 323.624 18.458C324.812 17.7833 326.139 17.446 327.606 17.446C329.322 17.446 330.825 17.886 332.116 18.766C333.406 19.646 334.308 20.8633 334.822 22.418H331.28C330.928 21.6847 330.429 21.1347 329.784 20.768C329.153 20.4013 328.42 20.218 327.584 20.218C326.689 20.218 325.89 20.4307 325.186 20.856C324.496 21.2667 323.954 21.8533 323.558 22.616C323.176 23.3787 322.986 24.2733 322.986 25.3C322.986 26.312 323.176 27.2067 323.558 27.984C323.954 28.7467 324.496 29.3407 325.186 29.766C325.89 30.1767 326.689 30.382 327.584 30.382C328.42 30.382 329.153 30.1987 329.784 29.832C330.429 29.4507 330.928 28.8933 331.28 28.16H334.822C334.308 29.7293 333.406 30.954 332.116 31.834C330.84 32.6993 329.336 33.132 327.606 33.132C326.139 33.132 324.812 32.802 323.624 32.142C322.45 31.4673 321.519 30.536 320.83 29.348C320.155 28.16 319.818 26.8107 319.818 25.3ZM341.413 16.72V33H338.333V16.72H341.413ZM344.544 26.862C344.544 25.63 344.786 24.5373 345.27 23.584C345.768 22.6307 346.436 21.8973 347.272 21.384C348.122 20.8707 349.068 20.614 350.11 20.614C351.019 20.614 351.811 20.7973 352.486 21.164C353.175 21.5307 353.725 21.9927 354.136 22.55V20.812H357.238V33H354.136V31.218C353.74 31.79 353.19 32.2667 352.486 32.648C351.796 33.0147 350.997 33.198 350.088 33.198C349.061 33.198 348.122 32.934 347.272 32.406C346.436 31.878 345.768 31.1373 345.27 30.184C344.786 29.216 344.544 28.1087 344.544 26.862ZM354.136 26.906C354.136 26.158 353.989 25.52 353.696 24.992C353.402 24.4493 353.006 24.0387 352.508 23.76C352.009 23.4667 351.474 23.32 350.902 23.32C350.33 23.32 349.802 23.4593 349.318 23.738C348.834 24.0167 348.438 24.4273 348.13 24.97C347.836 25.498 347.69 26.1287 347.69 26.862C347.69 27.5953 347.836 28.2407 348.13 28.798C348.438 29.3407 348.834 29.7587 349.318 30.052C349.816 30.3453 350.344 30.492 350.902 30.492C351.474 30.492 352.009 30.3527 352.508 30.074C353.006 29.7807 353.402 29.37 353.696 28.842C353.989 28.2993 354.136 27.654 354.136 26.906ZM365.79 33.198C364.792 33.198 363.898 33.022 363.106 32.67C362.314 32.3033 361.683 31.812 361.214 31.196C360.759 30.58 360.51 29.898 360.466 29.15H363.568C363.626 29.6193 363.854 30.008 364.25 30.316C364.66 30.624 365.166 30.778 365.768 30.778C366.354 30.778 366.809 30.6607 367.132 30.426C367.469 30.1913 367.638 29.8907 367.638 29.524C367.638 29.128 367.432 28.8347 367.022 28.644C366.626 28.4387 365.988 28.2187 365.108 27.984C364.198 27.764 363.45 27.5367 362.864 27.302C362.292 27.0673 361.793 26.708 361.368 26.224C360.957 25.74 360.752 25.0873 360.752 24.266C360.752 23.5913 360.942 22.9753 361.324 22.418C361.72 21.8607 362.277 21.4207 362.996 21.098C363.729 20.7753 364.587 20.614 365.57 20.614C367.022 20.614 368.18 20.9807 369.046 21.714C369.911 22.4327 370.388 23.408 370.476 24.64H367.528C367.484 24.156 367.278 23.7747 366.912 23.496C366.56 23.2027 366.083 23.056 365.482 23.056C364.924 23.056 364.492 23.1587 364.184 23.364C363.89 23.5693 363.744 23.8553 363.744 24.222C363.744 24.6327 363.949 24.948 364.36 25.168C364.77 25.3733 365.408 25.586 366.274 25.806C367.154 26.026 367.88 26.2533 368.452 26.488C369.024 26.7227 369.515 27.0893 369.926 27.588C370.351 28.072 370.571 28.7173 370.586 29.524C370.586 30.228 370.388 30.8587 369.992 31.416C369.61 31.9733 369.053 32.4133 368.32 32.736C367.601 33.044 366.758 33.198 365.79 33.198ZM378.658 33.198C377.661 33.198 376.766 33.022 375.974 32.67C375.182 32.3033 374.551 31.812 374.082 31.196C373.627 30.58 373.378 29.898 373.334 29.15H376.436C376.495 29.6193 376.722 30.008 377.118 30.316C377.529 30.624 378.035 30.778 378.636 30.778C379.223 30.778 379.677 30.6607 380 30.426C380.337 30.1913 380.506 29.8907 380.506 29.524C380.506 29.128 380.301 28.8347 379.89 28.644C379.494 28.4387 378.856 28.2187 377.976 27.984C377.067 27.764 376.319 27.5367 375.732 27.302C375.16 27.0673 374.661 26.708 374.236 26.224C373.825 25.74 373.62 25.0873 373.62 24.266C373.62 23.5913 373.811 22.9753 374.192 22.418C374.588 21.8607 375.145 21.4207 375.864 21.098C376.597 20.7753 377.455 20.614 378.438 20.614C379.89 20.614 381.049 20.9807 381.914 21.714C382.779 22.4327 383.256 23.408 383.344 24.64H380.396C380.352 24.156 380.147 23.7747 379.78 23.496C379.428 23.2027 378.951 23.056 378.35 23.056C377.793 23.056 377.36 23.1587 377.052 23.364C376.759 23.5693 376.612 23.8553 376.612 24.222C376.612 24.6327 376.817 24.948 377.228 25.168C377.639 25.3733 378.277 25.586 379.142 25.806C380.022 26.026 380.748 26.2533 381.32 26.488C381.892 26.7227 382.383 27.0893 382.794 27.588C383.219 28.072 383.439 28.7173 383.454 29.524C383.454 30.228 383.256 30.8587 382.86 31.416C382.479 31.9733 381.921 32.4133 381.188 32.736C380.469 33.044 379.626 33.198 378.658 33.198ZM239.106 56.342H236.972V66H233.848V56.342H232.462V53.812H233.848V53.196C233.848 51.7 234.273 50.6 235.124 49.896C235.975 49.192 237.258 48.862 238.974 48.906V51.502C238.226 51.4873 237.705 51.612 237.412 51.876C237.119 52.14 236.972 52.6167 236.972 53.306V53.812H239.106V56.342ZM247.394 66.198C246.221 66.198 245.165 65.9413 244.226 65.428C243.287 64.9 242.547 64.1593 242.004 63.206C241.476 62.2527 241.212 61.1527 241.212 59.906C241.212 58.6593 241.483 57.5593 242.026 56.606C242.583 55.6527 243.339 54.9193 244.292 54.406C245.245 53.878 246.309 53.614 247.482 53.614C248.655 53.614 249.719 53.878 250.672 54.406C251.625 54.9193 252.373 55.6527 252.916 56.606C253.473 57.5593 253.752 58.6593 253.752 59.906C253.752 61.1527 253.466 62.2527 252.894 63.206C252.337 64.1593 251.574 64.9 250.606 65.428C249.653 65.9413 248.582 66.198 247.394 66.198ZM247.394 63.514C247.951 63.514 248.472 63.382 248.956 63.118C249.455 62.8393 249.851 62.4287 250.144 61.886C250.437 61.3433 250.584 60.6833 250.584 59.906C250.584 58.7473 250.276 57.86 249.66 57.244C249.059 56.6133 248.318 56.298 247.438 56.298C246.558 56.298 245.817 56.6133 245.216 57.244C244.629 57.86 244.336 58.7473 244.336 59.906C244.336 61.0647 244.622 61.9593 245.194 62.59C245.781 63.206 246.514 63.514 247.394 63.514ZM259.971 55.704C260.367 55.0587 260.881 54.5527 261.511 54.186C262.157 53.8193 262.89 53.636 263.711 53.636V56.87H262.897C261.929 56.87 261.196 57.0973 260.697 57.552C260.213 58.0067 259.971 58.7987 259.971 59.928V66H256.891V53.812H259.971V55.704ZM275.934 63.404H282.842V66H272.37V63.624L279.234 53.24H272.37V50.644H282.842V53.02L275.934 63.404ZM291.756 66.198C290.582 66.198 289.526 65.9413 288.588 65.428C287.649 64.9 286.908 64.1593 286.366 63.206C285.838 62.2527 285.574 61.1527 285.574 59.906C285.574 58.6593 285.845 57.5593 286.388 56.606C286.945 55.6527 287.7 54.9193 288.654 54.406C289.607 53.878 290.67 53.614 291.844 53.614C293.017 53.614 294.08 53.878 295.034 54.406C295.987 54.9193 296.735 55.6527 297.278 56.606C297.835 57.5593 298.114 58.6593 298.114 59.906C298.114 61.1527 297.828 62.2527 297.256 63.206C296.698 64.1593 295.936 64.9 294.968 65.428C294.014 65.9413 292.944 66.198 291.756 66.198ZM291.756 63.514C292.313 63.514 292.834 63.382 293.318 63.118C293.816 62.8393 294.212 62.4287 294.506 61.886C294.799 61.3433 294.946 60.6833 294.946 59.906C294.946 58.7473 294.638 57.86 294.022 57.244C293.42 56.6133 292.68 56.298 291.8 56.298C290.92 56.298 290.179 56.6133 289.578 57.244C288.991 57.86 288.698 58.7473 288.698 59.906C288.698 61.0647 288.984 61.9593 289.556 62.59C290.142 63.206 290.876 63.514 291.756 63.514ZM306.665 66.198C305.492 66.198 304.436 65.9413 303.497 65.428C302.558 64.9 301.818 64.1593 301.275 63.206C300.747 62.2527 300.483 61.1527 300.483 59.906C300.483 58.6593 300.754 57.5593 301.297 56.606C301.854 55.6527 302.61 54.9193 303.563 54.406C304.516 53.878 305.58 53.614 306.753 53.614C307.926 53.614 308.99 53.878 309.943 54.406C310.896 54.9193 311.644 55.6527 312.187 56.606C312.744 57.5593 313.023 58.6593 313.023 59.906C313.023 61.1527 312.737 62.2527 312.165 63.206C311.608 64.1593 310.845 64.9 309.877 65.428C308.924 65.9413 307.853 66.198 306.665 66.198ZM306.665 63.514C307.222 63.514 307.743 63.382 308.227 63.118C308.726 62.8393 309.122 62.4287 309.415 61.886C309.708 61.3433 309.855 60.6833 309.855 59.906C309.855 58.7473 309.547 57.86 308.931 57.244C308.33 56.6133 307.589 56.298 306.709 56.298C305.829 56.298 305.088 56.6133 304.487 57.244C303.9 57.86 303.607 58.7473 303.607 59.906C303.607 61.0647 303.893 61.9593 304.465 62.59C305.052 63.206 305.785 63.514 306.665 63.514ZM331.298 53.636C332.794 53.636 333.997 54.098 334.906 55.022C335.83 55.9313 336.292 57.2073 336.292 58.85V66H333.212V59.268C333.212 58.3147 332.97 57.5887 332.486 57.09C332.002 56.5767 331.342 56.32 330.506 56.32C329.67 56.32 329.003 56.5767 328.504 57.09C328.02 57.5887 327.778 58.3147 327.778 59.268V66H324.698V59.268C324.698 58.3147 324.456 57.5887 323.972 57.09C323.488 56.5767 322.828 56.32 321.992 56.32C321.142 56.32 320.467 56.5767 319.968 57.09C319.484 57.5887 319.242 58.3147 319.242 59.268V66H316.162V53.812H319.242V55.286C319.638 54.7727 320.144 54.3693 320.76 54.076C321.391 53.7827 322.08 53.636 322.828 53.636C323.782 53.636 324.632 53.8413 325.38 54.252C326.128 54.648 326.708 55.22 327.118 55.968C327.514 55.264 328.086 54.6993 328.834 54.274C329.597 53.8487 330.418 53.636 331.298 53.636Z" fill="white"/>
</svg>
